<svg xmlns="http://www.w3.org/2000/svg" width="1600" height="900" viewBox="0 0 1600 900"><rect width="1600" height="900" fill="#07090d"/><rect x="0" y="0" width="230" height="900" fill="#080b10"/><rect x="230" y="0" width="1370" height="92" fill="#0b0f14"/><text x="270" y="55" fill="#f4efe7" font-family="Inter,Segoe UI,sans-serif" font-size="28" font-weight="700">PROMETHEUS · Command-to-Proof Control Room</text><rect x="266" y="124" width="790" height="294" rx="20" fill="#111720" stroke="#ffffff22"/><text x="300" y="170" fill="#f7b44d" font-family="Inter,Segoe UI,sans-serif" font-size="13">SELF-PROVING AI ENGINEERING</text><text x="300" y="225" fill="#f4efe7" font-family="Inter,Segoe UI,sans-serif" font-size="40" font-weight="800">Mission → Failure → Repair → Proof</text><text x="300" y="270" fill="#8e99a7" font-family="Inter,Segoe UI,sans-serif" font-size="17">A governed engineering loop with evidence, receipts and reusable capability.</text><circle cx="1317" cy="270" r="130" fill="none" stroke="#4ed8ef55" stroke-dasharray="8 9"/><circle cx="1317" cy="270" r="95" fill="#261307" stroke="#f7b44d"/><text x="1317" y="265" text-anchor="middle" fill="#ffd27c" font-family="Inter,Segoe UI,sans-serif" font-size="54" font-weight="800">100%</text><text x="1317" y="300" text-anchor="middle" fill="#8e99a7" font-family="Inter,Segoe UI,sans-serif" font-size="13">RELEASE READINESS</text><g font-family="Inter,Segoe UI,sans-serif"><rect x="266" y="450" width="300" height="190" rx="18" fill="#111720" stroke="#ffffff22"/><text x="290" y="490" fill="#f7b44d" font-size="13">IGNITION CHAMBER</text><text x="290" y="530" fill="#f4efe7" font-size="25" font-weight="700">Mission Control</text><text x="290" y="580" fill="#52e0a4" font-size="18">PROMOTED</text><rect x="584" y="450" width="620" height="190" rx="18" fill="#111720" stroke="#ffffff22"/><text x="608" y="490" fill="#f7b44d" font-size="13">COMMAND-TO-PROOF</text><text x="608" y="530" fill="#f4efe7" font-size="25" font-weight="700">Evidence Pipeline</text><text x="608" y="580" fill="#52e0a4" font-size="18">IGNITION · SECA · HYDRA · PROOFGRID · GENOME</text><rect x="1222" y="450" width="338" height="190" rx="18" fill="#111720" stroke="#52e0a455"/><text x="1246" y="490" fill="#52e0a4" font-size="13">LIVE PROOF</text><text x="1246" y="530" fill="#f4efe7" font-size="25" font-weight="700">ProofGrid</text><text x="1246" y="580" fill="#52e0a4" font-size="18">8 / 8 VERIFIED</text><rect x="266" y="672" width="410" height="160" rx="18" fill="#111720" stroke="#ff5d6d55"/><text x="290" y="715" fill="#ff5d6d" font-size="13">SECA PROMOTION GATE</text><text x="290" y="760" fill="#f4efe7" font-size="25" font-weight="700">FAIL CLOSED</text><rect x="694" y="672" width="410" height="160" rx="18" fill="#111720" stroke="#ff742f55"/><text x="718" y="715" fill="#ff742f" font-size="13">HYDRA REPAIR FORGE</text><text x="718" y="760" fill="#f4efe7" font-size="25" font-weight="700">BEHAVIOR CHANGED</text><rect x="1122" y="672" width="438" height="160" rx="18" fill="#111720" stroke="#aa7cff55"/><text x="1146" y="715" fill="#aa7cff" font-size="13">CAPABILITY GENOME</text><text x="1146" y="760" fill="#f4efe7" font-size="25" font-weight="700">PG-CG-REPLAY-GUARD-001</text></g></svg>